<svg xmlns="http://www.w3.org/2000/svg" viewBox="0 0 283 465">
  <g id="wings">
    <g>
      <path id="wings-left-outer" d="M110,313.5s-44.2-6.4-73.6,13.6S3,372.3,3,372.3s13.1,1.6,33.8-5.2,34.6-12.2,34.6-12.2-21.6,9.8-33.2,22.2A83.3,83.3,0,0,0,22,401.7s43.1.5,68.5-15.4,20.1-26.8,20.1-26.8Z" transform="translate(-0.5)" style="fill: #d2b0d4;stroke: #231f20;stroke-linecap: round;stroke-linejoin: round;stroke-width: 5px"/>
      <path id="wings-left-inner" d="M102.3,321.8s-27.1-2-51.7,10.8-30.5,28.6-30.5,28.6,45.6-12.6,55.4-18.9,39.1,2.6,5.7,18.8S39.7,392,39.7,392s31.9-3.1,48-16.1,15.6-17.3,15.6-17.3Z" transform="translate(-0.5)" style="fill: #fce7f0;stroke: #231f20;stroke-linecap: round;stroke-linejoin: round;stroke-width: 3px"/>
      <path id="wings-right-outer" d="M130.8,314.8s43.7-9.5,74.4,8.4S241.7,366,241.7,366s-12.9,2.4-34.1-2.8-35.4-9.8-35.4-9.8,22.3,8.2,34.7,19.8a85.3,85.3,0,0,1,17.9,23.4s-42.9,3.5-69.5-10.6-21.8-25.2-21.8-25.2Z" transform="translate(-0.5)" style="fill: #d2b0d4;stroke: #231f20;stroke-linecap: round;stroke-linejoin: round;stroke-width: 5px"/>
      <path id="wings-right-inner" d="M139.1,322.5s26.9-3.9,52.3,7.2,32.4,26.4,32.4,26.4-46.3-9.4-56.5-15-38.9,5.3-4.3,19.1,43.5,28,43.5,28-32.1-.9-49-12.8-16.8-16.1-16.8-16.1Z" transform="translate(-0.5)" style="fill: #fce7f0;stroke: #231f20;stroke-linecap: round;stroke-linejoin: round;stroke-width: 3px"/>
    </g>
  </g>
  <g id="lace-rear">
    <g id="orb">
      <g>
        <circle id="orb-bg" cx="66.2" cy="293.3" r="20" style="fill: #b181b9;stroke: #231f20;stroke-linecap: round;stroke-linejoin: round;stroke-width: 5px"/>
        <polygon id="orb-triangle-outer" points="47.7 289.1 82.2 281.6 71.7 312.6 47.7 289.1" style="fill: #b98fb8;stroke: #231f20;stroke-linecap: round;stroke-linejoin: round;stroke-width: 4px;opacity: 0.8"/>
        <g id="orb-triangle-mid" style="opacity: 0.8">
          <polygon points="65 285 76 298.4 61.3 301.8 65 285" style="fill: #e39ac3;opacity: 0.8"/>
          <polygon points="65 285 76 298.4 61.3 301.8 65 285" style="fill: none;stroke: #231f20;stroke-linecap: round;stroke-linejoin: round;stroke-width: 2px"/>
        </g>
        <g id="orb-triangle-inner" style="opacity: 0.8">
          <polygon points="68.5 299.7 63.3 294 70.7 292.2 68.5 299.7" style="fill: #ecb7d4;opacity: 0.48"/>
          <polygon points="68.5 299.7 63.3 294 70.7 292.2 68.5 299.7" style="fill: none;stroke: #231f20;stroke-linecap: round;stroke-linejoin: round;stroke-width: 2px"/>
        </g>
      </g>
    </g>
  </g>
  <g id="onion">
    <g>
      <path id="onion-outer-outline" d="M20,83.7c2-21,15-62,73-74s70,3,70,3,23-15,61,0,49,48,53,68,4,116-125,116S18,104.7,20,83.7Z" transform="translate(-0.5)" style="fill: #d2b0d4;stroke: #231f20;stroke-linecap: round;stroke-linejoin: round;stroke-width: 5px"/>
      <path id="onion-right-accent" d="M237,20.7s-16-13-43-14-31,6-31,6,9.9-1.6,25,10.7,20,18.3,20,18.3-5-14-3-15,13,6,15,4-7-12-6-14S237,20.7,237,20.7Z" transform="translate(-0.5)" style="fill: #fce7f0;stroke: #231f20;stroke-linecap: round;stroke-linejoin: round;stroke-width: 4px"/>
      <path id="onion-center-accent" d="M95,39.7s36-5,45,2,12,16,17,16,16-15,24-18,27,2,27,2-13-24-45-29S95,39.7,95,39.7Z" transform="translate(-0.5)" style="fill: #fce7f0;stroke: #231f20;stroke-linecap: round;stroke-linejoin: round;stroke-width: 4px"/>
      <path id="onion-left-accent" d="M74,15.7s16,1,16,3-8,7-8,10,15-2,15-1-3,13-3,13a145.7,145.7,0,0,1,39-23c22.3-8.6,30-5,30-5s-12-9-42-7S74,15.7,74,15.7Z" transform="translate(-0.5)" style="fill: #fce7f0;stroke: #231f20;stroke-linecap: round;stroke-linejoin: round;stroke-width: 4px"/>
      <path id="onion-inner-outline" d="M163,12.7c-27-1-93,23-96,84s21,100,82,100,77-37,79-90S190,13.7,163,12.7Z" transform="translate(-0.5)" style="fill: none;stroke: #231f20;stroke-linecap: round;stroke-linejoin: round;stroke-width: 4px"/>
    </g>
  </g>
  <g id="body">
    <path id="outer-bg" d="M89.5,192.2s-39.5-8.5-66-63,10-100,10-100S27,65.7,47,114.7s58.5,68,81,68,35-9,46-47-1-101-1-101,27,24,29,69-11.5,70.5-11.5,70.5S221,161.7,242,131.7s31.5-90.5,31.5-90.5S290,90.7,272,132.7s-69,65-69,65,4,31-3,53-40,35-40,35,17.5,17.5,17,62-25,46-25,46l.5,44.5s1.5,22-10,22-11-25-11-25l-1-38s-3.5,1-11,1-10-1-10-1l1,39s1.5,25-10,25-11-27-11-27l-1-41s-18-7-19.5-49.5,21-49,21-49-34,8-42.5-7.5,16-44,16-44,0-24,4.5-33.5S89.5,192.2,89.5,192.2ZM196,200.7s18-9,26-14,18-13,18-13m-71,26s16-16,20-23a71.3,71.3,0,0,0,6-14m-39,9s-4,7-17,10-18,16-18,16" transform="translate(-0.5)" style="fill: #fff"/>
    <path id="head-accent" d="M200,250.7c7-22,3-53,3-53s51-23,69-65,1.5-91.5,1.5-91.5S261,101.7,240,131.7s-49.5,42.5-49.5,42.5S204,148.7,202,103.7s-29-69-29-69,10,63-1,101-21.5,47-44,47-60-23-79-68S33.5,29.2,33.5,29.2s-36.5,45.5-10,100,66,63,66,63-17,8-21.5,17.5-4.5,33.5-4.5,33.5-9.4,11.6-7.5,15.5,12,3,23,2c22-2,44-38,71-38S200,250.7,200,250.7Z" transform="translate(-0.5)" style="fill: #fce7f0"/>
    <path id="body-dark-accent" d="M180,347.7c.5-44.5-20-62-20-62s-65,7-69,9-23.5,6.5-22,49c0,0,22-17,53-18S180,347.7,180,347.7Z" transform="translate(-0.5)" style="fill: #d2b0d4"/>
    <path id="body-light-accent" d="M177,347.7c-.5,44.5-25,46-25,46v12.1H130.8l-.3-8.6s-3.5,1-11,1-10-1-10-1l.3,8.6H89.5V393.2s-19-7-20.5-49.5c0,0,22-23,54-22S177,347.7,177,347.7Z" transform="translate(-0.5)" style="fill: #fce7f0;stroke: #231f20;stroke-linecap: round;stroke-linejoin: round;stroke-width: 4px"/>
    <path id="right-arm-accent" d="M168.5,328.2c2,0,6,3,7,7s2.1,15.5.5,23.5c-2,10-11,14-15,9s-.5-20.5-.5-27.5S166.5,328.2,168.5,328.2Z" transform="translate(-0.5)" style="fill: #f1f2f2;stroke: #231f20;stroke-linecap: round;stroke-linejoin: round;stroke-width: 4px"/>
    <path id="right-arm" d="M149,298.7s11,21,11,40-3,24,1,29,12,1,14-9c1.6-8.1,1.9-19.5.4-30.4" transform="translate(-0.5)" style="fill: none;stroke: #231f20;stroke-linecap: round;stroke-linejoin: round;stroke-width: 5px"/>
    <path id="left-arm-accent" d="M87,332.7c-2,15,7,34-1,37s-16-13-15-34c0,0,5-7,8-7S87,332.7,87,332.7Z" transform="translate(-0.5)" style="fill: #fff;stroke: #231f20;stroke-linecap: round;stroke-linejoin: round;stroke-width: 4px"/>
    <path id="left-arm" d="M102,301.7s-13,14-15,29,7,36-1,39-16-15-15-36" transform="translate(-0.5)" style="fill: none;stroke: #231f20;stroke-linecap: round;stroke-linejoin: round;stroke-width: 5px"/>
    <path id="tendril-right-accent" d="M280,98.2c2.3-30.6-6.5-57-6.5-57a265.4,265.4,0,0,1-12.4,50.7l3.4,22.3Z" transform="translate(-0.5)" style="fill: #fff;fill-opacity: 0.8;stroke: #231f20;stroke-linecap: round;stroke-linejoin: round;stroke-width: 5px"/>
    <path id="tendril-middle-accent" d="M199.2,84.8C192.7,50,173,34.7,173,34.7a277.2,277.2,0,0,1,5.2,51l12.3,22.5Z" transform="translate(-0.5)" style="fill: #fff;fill-opacity: 0.8;stroke: #231f20;stroke-linecap: round;stroke-linejoin: round;stroke-width: 5px"/>
    <path id="tendril-left-accent" d="M35.5,73.9c-7.6-31.6-2-44.7-2-44.7S15.1,50.3,14.9,84.4l14.6,16.8Z" transform="translate(-0.5)" style="fill: #f1f2f2;fill-opacity: 0.8;stroke: #231f20;stroke-linecap: round;stroke-linejoin: round;stroke-width: 5px"/>
    <path id="eye-right-smile" d="M110,243.3s8.1-12.6,20-15.6a19.6,19.6,0,0,1,19,5" transform="translate(-0.5)" style="fill: none;stroke: #231f20;stroke-linecap: round;stroke-linejoin: round;stroke-width: 5px"/>
    <g id="sunglasses">
      <path id="sunglasses-obj" d="M64.3,219.7h99.3a2.6,2.6,0,0,1,2.6,2.5v9.1a2,2,0,0,1-2.1,2h-2.7a2,2,0,0,0-2.1,2v2.8a2,2,0,0,1-2,2h-2.8a2,2,0,0,0-2,2v2.8a2,2,0,0,1-2,2h-2.8a2,2,0,0,0-2,2.1v2.7a2,2,0,0,1-2,2.1H106.8a2,2,0,0,1-2-2.1V249a2.1,2.1,0,0,0-2.1-2.1H99.9a2,2,0,0,1-2-2v-2.8a2,2,0,0,0-2-2H93.1a2,2,0,0,1-2-2v-2.8a2,2,0,0,0-2-2H64.3" transform="translate(-0.5)" style="fill: #231f20"/>
      <path id="sunglasses-sheen" d="M152.5,228.6v2.6a2.1,2.1,0,0,1-2.1,2.1h-2.6a2.1,2.1,0,0,1-2.1-2.1v-2.6a2.1,2.1,0,0,1,2.1-2.1h2.6A2.1,2.1,0,0,1,152.5,228.6Zm-6.8,6.8V238a2.1,2.1,0,0,1-2.1,2.1H141a2.1,2.1,0,0,1-2.1-2.1v-2.6a2.1,2.1,0,0,1,2.1-2.1h2.6A2.1,2.1,0,0,1,145.7,235.4Zm-9-2.1h-2.5a2.1,2.1,0,0,1-2.2-2.1v-2.6a2.1,2.1,0,0,1,2.2-2.1h2.5a2.1,2.1,0,0,1,2.2,2.1v2.6A2.1,2.1,0,0,1,136.7,233.3Zm-4.7,2.1V238a2.1,2.1,0,0,1-2.1,2.1h-2.6a2.1,2.1,0,0,1-2.1-2.1v-2.6a2.1,2.1,0,0,1,2.1-2.1h2.6A2.1,2.1,0,0,1,132,235.4Zm-6.8,6.8v2.6a2.1,2.1,0,0,1-2.1,2.1h-2.6a2.1,2.1,0,0,1-2.1-2.1v-2.6a2.1,2.1,0,0,1,2.1-2.1h2.6A2.1,2.1,0,0,1,125.2,242.2Zm9-2.1h2.5a2.2,2.2,0,0,1,2.2,2.1v2.6a2.1,2.1,0,0,1-2.2,2.1h-2.5a2.1,2.1,0,0,1-2.2-2.1v-2.6A2.2,2.2,0,0,1,134.2,240.1Z" transform="translate(-0.5)" style="fill: #fff"/>
    </g>
    <path id="body-outer-outline" d="M89.5,192.2s-39.5-8.5-66-63,10-100,10-100S27,65.7,47,114.7s58.5,68,81,68,35-9,46-47-1-101-1-101,27,24,29,69-11.5,70.5-11.5,70.5S221,161.7,242,131.7s31.5-90.5,31.5-90.5S290,90.7,272,132.7s-69,65-69,65,4,31-3,53-40,35-40,35,17.5,17.5,17,62-25,46-25,46l.5,44.5s1.5,22-10,22-11-25-11-25l-1-38s-3.5,1-11,1-10-1-10-1l1,39s1.5,25-10,25-11-27-11-27l-1-41s-18-7-19.5-49.5,21-49,21-49-34,8-42.5-7.5,16-43,16-43,0-25,4.5-34.5S89.5,192.2,89.5,192.2ZM196,200.7s18-9,26-14,18-13,18-13m-71,26s16-16,20-23a71.3,71.3,0,0,0,6-14m-56,19c-13,3-18,16-18,16" transform="translate(-0.5)" style="fill: none;stroke: #231f20;stroke-linecap: round;stroke-linejoin: round;stroke-width: 5px"/>
    <path id="nose" d="M53,257.7c2-3,33-2,34,0s-17,21-20,21S51,260.7,53,257.7Z" transform="translate(-0.5)" style="fill: #231f20;stroke: #231f20;stroke-linecap: round;stroke-linejoin: round;stroke-width: 5px"/>
  </g>
  <g id="lace-front">
    <g id="orb-2">
      <circle id="orb-bg-2" cx="198.5" cy="268.7" r="32" style="fill: #a388b9;stroke: #231f20;stroke-linecap: round;stroke-linejoin: round;stroke-width: 5px"/>
      <polygon id="orb-triangle-outer-2" points="168.3 266.2 221.3 246.7 211.7 298.1 168.3 266.2" style="fill: #b98fb8;stroke: #231f20;stroke-linecap: round;stroke-linejoin: round;stroke-width: 4px;opacity: 0.8"/>
      <g id="orb-triangle-mid-2" style="opacity: 0.8">
        <polygon points="194.8 255.9 215.3 274.7 192.7 283.3 194.8 255.9" style="fill: #e39ac3;opacity: 0.8"/>
        <polygon points="194.8 255.9 215.3 274.7 192.7 283.3 194.8 255.9" style="fill: none;stroke: #231f20;stroke-linecap: round;stroke-linejoin: round;stroke-width: 2px"/>
      </g>
      <g id="orb-triangle-inner-2" style="opacity: 0.8">
        <polygon points="203.7 278.4 194.1 270.4 205.4 266 203.7 278.4" style="fill: #ecb7d4;opacity: 0.48"/>
        <polygon points="203.7 278.4 194.1 270.4 205.4 266 203.7 278.4" style="fill: none;stroke: #231f20;stroke-linecap: round;stroke-linejoin: round;stroke-width: 2px"/>
      </g>
    </g>
    <g id="orb-3">
      <circle id="orb-bg-3" cx="169.5" cy="279.7" r="28" style="fill: #a681ba;stroke: #231f20;stroke-linecap: round;stroke-linejoin: round;stroke-width: 5px"/>
      <polygon id="orb-triangle-outer-3" points="143.3 275.7 190.7 261.8 179.2 306.1 143.3 275.7" style="fill: #b98fb8;stroke: #231f20;stroke-linecap: round;stroke-linejoin: round;stroke-width: 4px;opacity: 0.8"/>
      <g id="orb-triangle-mid-3" style="opacity: 0.8">
        <polygon points="167.1 268.3 183.8 285.9 163.5 292.1 167.1 268.3" style="fill: #e39ac3;opacity: 0.8"/>
        <polygon points="167.1 268.3 183.8 285.9 163.5 292.1 167.1 268.3" style="fill: none;stroke: #231f20;stroke-linecap: round;stroke-linejoin: round;stroke-width: 2px"/>
      </g>
      <g id="orb-triangle-inner-3" style="opacity: 0.8">
        <polygon points="173.5 288.4 165.5 280.9 175.7 277.8 173.5 288.4" style="fill: #ecb7d4;opacity: 0.48"/>
        <polygon points="173.5 288.4 165.5 280.9 175.7 277.8 173.5 288.4" style="fill: none;stroke: #231f20;stroke-linecap: round;stroke-linejoin: round;stroke-width: 2px"/>
      </g>
    </g>
    <g id="orb-4">
      <circle id="orb-bg-4" cx="103.5" cy="300.7" r="16" style="fill: #b181b9;stroke: #231f20;stroke-linecap: round;stroke-linejoin: round;stroke-width: 5px"/>
      <polygon id="orb-triangle-outer-4" points="88.9 296.8 116.6 291.8 107.4 316.3 88.9 296.8" style="fill: #b98fb8;stroke: #231f20;stroke-linecap: round;stroke-linejoin: round;stroke-width: 3px;opacity: 0.8"/>
      <g id="orb-triangle-mid-4" style="opacity: 0.9">
        <polygon points="102.8 294 111.2 305.1 99.3 307.4 102.8 294" style="fill: #e39ac3;opacity: 0.8"/>
        <polygon points="102.8 294 111.2 305.1 99.3 307.4 102.8 294" style="fill: none;stroke: #231f20;stroke-linecap: round;stroke-linejoin: round;stroke-width: 2px"/>
      </g>
      <g id="orb-triangle-inner-4" style="opacity: 0.9">
        <polygon points="105.2 305.9 101.2 301.1 107.1 300 105.2 305.9" style="fill: #ecb7d4;opacity: 0.48"/>
        <polygon points="105.2 305.9 101.2 301.1 107.1 300 105.2 305.9" style="fill: none;stroke: #231f20;stroke-linecap: round;stroke-linejoin: round"/>
      </g>
    </g>
    <g id="orb-5">
      <circle id="orb-bg-5" cx="76.5" cy="308.7" r="12" style="fill: #b181b9;stroke: #231f20;stroke-linecap: round;stroke-linejoin: round;stroke-width: 5px"/>
      <polygon id="orb-triangle-outer-5" points="65.5 305.8 86.3 302 79.4 320.4 65.5 305.8" style="fill: #b98fb8;stroke: #231f20;stroke-linecap: round;stroke-linejoin: round;stroke-width: 3px;opacity: 0.8"/>
      <g id="orb-triangle-mid-5" style="opacity: 0.9">
        <polygon points="76 303.7 82.3 312 73.4 313.7 76 303.7" style="fill: #e39ac3;opacity: 0.8"/>
        <polygon points="76 303.7 82.3 312 73.4 313.7 76 303.7" style="fill: none;stroke: #231f20;stroke-linecap: round;stroke-linejoin: round;stroke-width: 2px"/>
      </g>
      <g id="orb-triangle-inner-5" style="opacity: 0.9">
        <polygon points="77.8 312.6 74.7 309 79.2 308.1 77.8 312.6" style="fill: #ecb7d4;opacity: 0.48"/>
        <polygon points="77.8 312.6 74.7 309 79.2 308.1 77.8 312.6" style="fill: none;stroke: #231f20;stroke-linecap: round;stroke-linejoin: round"/>
      </g>
    </g>
    <g id="orb-6">
      <circle id="orb-bg-6" cx="135.5" cy="290.7" r="24" style="fill: #b076b2;stroke: #231f20;stroke-linecap: round;stroke-linejoin: round;stroke-width: 5px"/>
      <polygon id="orb-triangle-outer-6" points="113 287.2 153.7 275.4 143.8 313.4 113 287.2" style="fill: #b98fb8;stroke: #231f20;stroke-linecap: round;stroke-linejoin: round;stroke-width: 4px;opacity: 0.8"/>
      <g id="orb-triangle-mid-6" style="opacity: 0.8">
        <polygon points="133.4 280.9 147.7 296 130.4 301.3 133.4 280.9" style="fill: #e39ac3;opacity: 0.8"/>
        <polygon points="133.4 280.9 147.7 296 130.4 301.3 133.4 280.9" style="fill: none;stroke: #231f20;stroke-linecap: round;stroke-linejoin: round;stroke-width: 2px"/>
      </g>
      <g id="orb-triangle-inner-6" style="opacity: 0.8">
        <polygon points="138.9 298.2 132.1 291.7 140.8 289.1 138.9 298.2" style="fill: #ecb7d4;opacity: 0.48"/>
        <polygon points="138.9 298.2 132.1 291.7 140.8 289.1 138.9 298.2" style="fill: none;stroke: #231f20;stroke-linecap: round;stroke-linejoin: round;stroke-width: 2px"/>
      </g>
    </g>
  </g>
</svg>
