<!-- fluent-emoji-high-contrast:mouse-face -->
<svg xmlns="http://www.w3.org/2000/svg" width="32" height="32" viewBox="0 0 32 32">
  <g fill="currentColor">
    <path d="M10.75 21.206a1.25 1.25 0 0 1 2.5 0v1.5a1.25 1.25 0 1 1-2.5 0v-1.5Zm8 0a1.25 1.25 0 0 1 2.5 0v1.5a1.25 1.25 0 1 1-2.5 0v-1.5Zm-2.719 6.763c1.196 0 1.938-1.735 1.938-2.11c0-.375-.325-.859-1.938-.859c-1.828 0-2.015.422-2.015.86c0 .32.82 2.109 2.015 2.109Zm7.5-19.483a4.5 4.5 0 0 0-4.493 4.74l.016.31l.285.123c1.814.782 3.046 2.16 3.786 3.56l.142.27l.305-.003a4.5 4.5 0 0 0-.04-9Zm-15.078.007a4.5 4.5 0 0 0-.134 8.998l.312.01l.145-.277c.79-1.505 2.14-2.803 3.869-3.549l.284-.123l.017-.309a4.5 4.5 0 0 0-4.493-4.75Z"/><path d="m8.96 28.355l-1.644.649a.5.5 0 0 0 .367.93l2.18-.86a14.588 14.588 0 0 0 4.4 2.175a5.976 5.976 0 0 0 3.515-.023c1.362-.436 2.844-1.183 4.212-2.203l2.311.91a.5.5 0 1 0 .367-.93l-1.784-.703a14.095 14.095 0 0 0 1.318-1.316h1.235a.5.5 0 0 0 0-1h-.447c1.124-1.586 1.917-3.512 1.975-5.72A8.5 8.5 0 1 0 16 8.497A8.5 8.5 0 1 0 5.097 20.291c.054 2.247.735 4.137 1.767 5.692h-.318a.5.5 0 1 0 0 1h1.066c.417.499.87.955 1.348 1.371ZM8.5 6a6.501 6.501 0 0 1 6.487 6.083a9.902 9.902 0 0 1 1.424-.044c.205.007.406.02.602.038a6.501 6.501 0 1 1 7.871 6.775l-.046.01l.01.05c.082.394.12.762.12 1.088c0 2.371-1.07 4.403-2.559 5.984H20.5a.5.5 0 1 0 0 1h.845c-.197.165-.397.322-.6.472l-1.03-.405a.5.5 0 0 0-.367.93l.387.152a12.19 12.19 0 0 1-2.567 1.189a3.976 3.976 0 0 1-2.34.009a12.56 12.56 0 0 1-2.69-1.154l.498-.196a.5.5 0 0 0-.367-.93l-1.165.46c-.23-.167-.456-.342-.675-.527h1.055a.5.5 0 0 0 0-1h-2.09c-1.364-1.519-2.3-3.507-2.3-5.984c0-.378.033-.756.099-1.131A6.5 6.5 0 0 1 8.5 6Z" />
  </g>
</svg>
