<svg version="1.1" baseProfile="tiny" xmlns="http://www.w3.org/2000/svg" xmlns:xlink="http://www.w3.org/1999/xlink" x="0px" y="0px" viewBox="0 0 99.8 74.1" xml:space="preserve">
  <g id="moveCategoryStatus">
		<path fill="#616161" stroke="#9E9E9E" stroke-width="2" stroke-miterlimit="10" d="M56,15C42.2,14.1,35,22.3,35,28.5s6.9,11.2,15.4,11.2c8.5,0,15.4,5,15.4,11.2S58.8,62,50.3,62c0,0-4.2,6.8,15.3,2.9c19.5-4,28-21.8,26.1-28.6C88.9,27,78.1,15.7,56,15L56,15z"/>
		<path fill="#616161" stroke="#9E9E9E" stroke-width="2" stroke-miterlimit="10" d="M49.9,68.9C24.1,68.9,3.1,54.6,3.1,37c0-17.5,21-31.8,46.8-31.8c25.8,0,46.8,14.3,46.8,31.8C96.7,54.6,75.7,68.9,49.9,68.9zM49.9,12.7c-21.3,0-39.3,11.2-39.3,24.4c0,13.2,18,24.4,39.3,24.4S89.3,50.3,89.3,37C89.3,23.8,71.2,12.7,49.9,12.7z"/>
	</g>
</svg>
