<svg version="1.1" baseProfile="tiny" xmlns="http://www.w3.org/2000/svg" xmlns:xlink="http://www.w3.org/1999/xlink" x="0px" y="0px" viewBox="0 0 99.8 73.2" xml:space="preserve">
  <g id="moveCategorySpecial">
    <path fill="#616161" stroke="#9E9E9E" stroke-width="2" stroke-miterlimit="10" d="M49.9,68.4c-25.8,0-46.8-14.3-46.8-31.8c0-17.5,21-31.8,46.8-31.8S96.7,19,96.7,36.6C96.7,54.1,75.7,68.4,49.9,68.4z M49.9,12.2c-21.3,0-39.3,11.2-39.3,24.4c0,13.2,18,24.4,39.3,24.4C71.6,61,89.3,50,89.3,36.6C89.3,23.4,71.2,12.2,49.9,12.2z"/>
    <path fill="#616161" stroke="#9E9E9E" stroke-width="2" stroke-miterlimit="10" d="M49.9,52.6c-17.2,0-30.1-6.9-30.1-16s12.9-16,30.1-16c17.2,0,30.1,6.9,30.1,16S67.1,52.6,49.9,52.6z M49.9,26.8c-13.7,0-23.9,5.2-23.9,9.8s10.2,9.8,23.9,9.8s23.9-5.2,23.9-9.8C73.8,31.9,63.6,26.8,49.9,26.8z"/>
    <ellipse fill="#616161" stroke="#9E9E9E" stroke-width="2" stroke-miterlimit="10" cx="49.9" cy="36.6" rx="10.6" ry="3.2"></ellipse>
  </g>
</svg>
