<!-- paypal duo-tone logo -->
<svg width="88" height="23" viewBox="0 0 88 23" fill="none">
  <path fill="currentColor" d="M32.7951 4.70386H27.9416C27.6095 4.70386 27.327 4.94083 27.2752 5.26283L25.3122 17.4856C25.2732 17.7267 25.4634 17.9442 25.7125 17.9442H28.0296C28.3617 17.9442 28.6442 17.7072 28.696 17.3845L29.2254 14.0879C29.2765 13.7652 29.5596 13.5282 29.8911 13.5282H31.4275C34.6246 13.5282 36.4698 12.0088 36.9516 8.99789C37.1688 7.68062 36.9609 6.64561 36.3328 5.92077C35.643 5.12483 34.4195 4.70386 32.7951 4.70386ZM33.355 9.16795C33.0896 10.8783 31.7589 10.8783 30.4723 10.8783H29.7399L30.2537 7.6841C30.2842 7.49104 30.4545 7.34886 30.6533 7.34886H30.9889C31.8654 7.34886 32.6922 7.34886 33.1194 7.83952C33.3742 8.13225 33.4522 8.56716 33.355 9.16795Z" />
  <path fill="currentColor" d="M47.3029 9.11289H44.9787C44.7807 9.11289 44.6097 9.25507 44.5792 9.44813L44.4763 10.0866L44.3138 9.85516C43.8106 9.13798 42.6886 8.89822 41.5687 8.89822C39.0004 8.89822 36.8068 10.8086 36.3796 13.4885C36.1575 14.8253 36.4733 16.1035 37.2454 16.9949C37.9536 17.8146 38.9671 18.1561 40.1728 18.1561C42.2422 18.1561 43.3898 16.8493 43.3898 16.8493L43.2862 17.4835C43.2471 17.726 43.4373 17.9435 43.685 17.9435H45.7786C46.1114 17.9435 46.3924 17.7065 46.4449 17.3838L47.7011 9.5715C47.7408 9.33104 47.5513 9.11289 47.3029 9.11289ZM44.0633 13.5554C43.839 14.8594 42.7851 15.7348 41.441 15.7348C40.7661 15.7348 40.2267 15.5222 39.8804 15.1194C39.5369 14.7193 39.4064 14.1499 39.5157 13.5156C39.725 12.2228 40.7966 11.3188 42.1202 11.3188C42.7802 11.3188 43.3167 11.5342 43.6701 11.9405C44.0242 12.351 44.1647 12.9239 44.0633 13.5554Z" />
  <path fill="currentColor" d="M59.6812 9.11288H57.3457C57.1229 9.11288 56.9135 9.22161 56.7872 9.40352L53.5659 14.0635L52.2005 9.58543C52.1147 9.30525 51.8514 9.11288 51.5533 9.11288H49.2582C48.9793 9.11288 48.7856 9.38052 48.8743 9.6384L51.4469 17.0528L49.0283 20.4059C48.8381 20.67 49.0297 21.0332 49.3583 21.0332H51.691C51.9124 21.0332 52.1196 20.9272 52.2452 20.7488L60.0134 9.73667C60.1993 9.47322 60.0084 9.11288 59.6812 9.11288Z" />
  <path fill="currentColor" d="M67.4137 4.70386H62.5595C62.2281 4.70386 61.9457 4.94083 61.8938 5.26283L59.9309 17.4856C59.8918 17.7267 60.082 17.9442 60.3297 17.9442H62.8207C63.052 17.9442 63.25 17.7783 63.2862 17.5525L63.8433 14.0879C63.8944 13.7652 64.1776 13.5282 64.509 13.5282H66.0448C69.2426 13.5282 71.087 12.0088 71.5696 8.99789C71.7875 7.68062 71.5781 6.64561 70.95 5.92077C70.2609 5.12483 69.0382 4.70386 67.4137 4.70386ZM67.9737 9.16795C67.7089 10.8783 66.3783 10.8783 65.0909 10.8783H64.3593L64.8738 7.6841C64.9043 7.49104 65.0732 7.34886 65.2726 7.34886H65.6083C66.484 7.34886 67.3115 7.34886 67.7387 7.83952C67.9935 8.13225 68.0709 8.56716 67.9737 9.16795Z" />
  <path fill="currentColor" d="M81.921 9.11289H79.5982C79.3988 9.11289 79.2292 9.25507 79.1994 9.44813L79.0965 10.0866L78.9333 9.85516C78.4301 9.13798 77.3088 8.89822 76.1889 8.89822C73.6206 8.89822 71.4277 10.8086 71.0005 13.4885C70.7791 14.8253 71.0935 16.1035 71.8656 16.9949C72.5753 17.8146 73.5873 18.1561 74.793 18.1561C76.8624 18.1561 78.01 16.8493 78.01 16.8493L77.9064 17.4835C77.8673 17.726 78.0575 17.9435 78.3066 17.9435H80.3995C80.7309 17.9435 81.0133 17.7065 81.0651 17.3838L82.322 9.5715C82.3603 9.33104 82.1701 9.11289 81.921 9.11289ZM78.6813 13.5554C78.4585 14.8594 77.4032 15.7348 76.0591 15.7348C75.3856 15.7348 74.8448 15.5222 74.4985 15.1194C74.155 14.7193 74.0258 14.1499 74.1337 13.5156C74.3445 12.2228 75.4147 11.3188 76.7382 11.3188C77.3982 11.3188 77.9347 11.5342 78.2882 11.9405C78.6437 12.351 78.7842 12.9239 78.6813 13.5554Z" />
  <path fill="currentColor" d="M84.6607 5.03909L82.6687 17.4856C82.6296 17.7267 82.8198 17.9442 83.0675 17.9442H85.0702C85.4031 17.9442 85.6855 17.7072 85.7366 17.3845L87.701 5.16246C87.74 4.92131 87.5498 4.70316 87.3022 4.70316H85.0596C84.8616 4.70385 84.6913 4.84603 84.6607 5.03909Z" />
  <path fill="currentColor" fill-opacity="0.5" d="M16.3565 5.34366C16.3367 5.46842 16.3139 5.59596 16.2884 5.72699C15.4105 10.1534 12.4072 11.6826 8.57136 11.6826H6.61833C6.14924 11.6826 5.75395 12.0171 5.68085 12.4716L4.68091 18.6997L4.39775 20.4651C4.3502 20.7634 4.5844 21.0324 4.89098 21.0324H8.35491C8.76511 21.0324 9.11356 20.7397 9.17814 20.3424L9.2122 20.1696L9.8644 16.1049L9.90627 15.8818C9.97014 15.4832 10.3193 15.1904 10.7295 15.1904H11.2476C14.6036 15.1904 17.2308 13.8523 17.9987 9.9799C18.3195 8.36223 18.1534 7.01151 17.3047 6.06154C17.0478 5.77508 16.7291 5.53742 16.3565 5.34366Z" />
  <path fill="currentColor" fill-opacity="0.75" d="M15.4385 4.98402C15.3044 4.94568 15.166 4.91083 15.0241 4.87947C14.8814 4.8488 14.7352 4.82162 14.5848 4.79792C14.0582 4.71429 13.4812 4.67456 12.8631 4.67456H7.64554C7.51709 4.67456 7.39502 4.70314 7.28573 4.75471C7.04515 4.86832 6.86631 5.09205 6.82302 5.36595L5.71309 12.2701L5.68115 12.4716C5.75425 12.0171 6.14954 11.6826 6.61864 11.6826H8.57167C12.4075 11.6826 15.4108 10.1527 16.2887 5.72698C16.315 5.59595 16.337 5.46841 16.3568 5.34365C16.1347 5.22795 15.8941 5.12898 15.6351 5.04465C15.5712 5.02374 15.5052 5.00353 15.4385 4.98402Z" />
  <path fill="currentColor" d="M6.82283 5.36597C6.86612 5.09206 7.04496 4.86833 7.28554 4.75542C7.39554 4.70385 7.5169 4.67527 7.64535 4.67527H12.8629C13.481 4.67527 14.058 4.715 14.5846 4.79864C14.735 4.82233 14.8812 4.84952 15.0239 4.88018C15.1658 4.91155 15.3042 4.94639 15.4383 4.98473C15.505 5.00424 15.571 5.02445 15.6356 5.04467C15.8946 5.129 16.1352 5.22867 16.3573 5.34367C16.6185 3.70788 16.3552 2.59412 15.4546 1.58561C14.4618 0.475333 12.6699 0 10.3769 0H3.72012C3.25173 0 2.85219 0.334545 2.7798 0.789667L0.00708884 18.0501C-0.0475563 18.3916 0.220702 18.6997 0.571282 18.6997H4.68102L5.7129 12.2702L6.82283 5.36597Z" />
</svg>
