<!-- salamance by n0rtist; vectorized by doshidak -->
<svg width="300" height="300" viewBox="0 0 300 300">
  <g fill="currentColor">
    <path d="M98,127.5l-28-30c0,0,8.2-20,15.6-37s23.4-47,23.4-47s-22,12-52,38s-40,43-40,43v129c0,0,18,18,43,34s47,25,47,25s-16.1-19.1-24-32s-20-35-20-35l42-31v-10c0,0-18.7,0-19.9,0s-2.1,0-3.1-1s-1-3.9-1-3.9v-28.1L98,127.5z" />
    <path d="M201,127.5l29-30c0,0-8.2-20-15.6-37c-7.4-17-25.4-48-25.4-48s24,13,54,39s40,43,40,43v126c0,0-18,21-43,37s-47,25-47,25s16.1-19.1,24-32s20-35,20-35l-43-31v-10c0,0,19.7,0,20.9,0c1.1,0,2.1,0,3.1-1s1-3.9,1-3.9v-28.1L201,127.5z" />
    <path d="M150,109.5c0,0-12,0-15,3s-5,19-5,47s2,42,5,45s10,3,15,3s13-1,15-4s3.3-15,4-44c0.7-27.8-2-44-5-47S150,109.5,150,109.5z" />
    <path d="M128,126.5c0,0-14,0-18,7s0,37,0,37s3,21,4,22s8,1,8,1h7c0,0-2-22-2-32S128,126.5,128,126.5z" />
    <path d="M171.2,126.5c0,0,14,0,18,7s0,37,0,37s-3,21-4,22s-8,1-8,1h-7c0,0,2-22,2-32S171.2,126.5,171.2,126.5z" />
    <path d="M84,171.5h21c0,0-1-34,1-38s8-8,12-9s11,0,11,0v-9c0,0-4,0-7,1c-1.4,0.5-5.1,1.1-18.5,10.6S84,142.5,84,142.5V171.5z" />
    <path d="M216,171.5h-21c0,0,1-34-1-38s-8-8-12-9s-11,0-11,0v-9c0,0,4,0,7,1c1.4,0.5,5.1,1.1,18.5,10.6c13.5,9.4,19.5,15.4,19.5,15.4V171.5z" />
    <path d="M110,189.5c0,0,1,5,2,6s18,1,18,1l-13,13v22H92c0,0-1-24,1-27S110,189.5,110,189.5z" />
    <path d="M189.8,189.5c0,0-1,5-2,6s-18,1-18,1l13,13v22h25c0,0,1-24-1-27S189.8,189.5,189.8,189.5z" />
    <path d="M133,207.5c0,0,6,3,16,3s17-3,17-3l-9,52l32,28h-15l-29-22L133,207.5z" />
    <path d="M147,85.5h1v-7l-2-12h7.5l-2.5,12v7h1l16-19h4c0,0,27-23,28-22s-18,32-18,32s29,4,29,7s-28,6-28,6s11,16,10,17s-28-13-30-13s-10,4-14,4s-10-4-13-4s-29,14-30,13s11-17,11-17s-29-4-29-6s28-8,28-8s-18-30-17-31s28,23,28,23h5L147,85.5zM141,89.5l-3-12h-11L141,89.5z M172,77.5h-11c0,0-3,11-3,12L172,77.5z" />
    <polygon points="138,98.5 138,108.5 150,106.5 162,108.5 162,98.5 150,101.5" />
    <polygon points="131,63.5 142,63.5 146,81.5" />
    <polygon points="157,63.5 153,81.5 168,63.5" />
  </g>
</svg>
