<svg xmlns="http://www.w3.org/2000/svg" x="0" y="0" viewBox="0 0 645 645">
  <filter id="showdexIconGaussianBlur">
    <feGaussianBlur stdDeviation="4"></feGaussianBlur>
  </filter>
  <g id="showdexIconBody">
    <path
      style="fill: #7ECAA5; stroke: #000000; stroke-width: 10; stroke-linecap: round; stroke-linejoin: round; stroke-miterlimit: 10;"
      d="M391.3,45.3l17.6,4.2c46.8,13.8,88.7,39.2,122.3,72.8c10.8,10.8,20.8,22.5,29.8,35l4.3,7.4l-6-12c0,0,40.3-16,58.2,34.3
        s-10,66.4-10,66.4l-4.4-10.3l3.8,12.2c5.8,22.7,8.8,46.6,8.8,71.1c0,18.2-1.7,36-4.9,53.3l-6.7-3.4c0,0,35.9,11.6,23.2,56.4
        c-12.7,44.8-54.3,28.7-54.3,28.7l7.8,2.7c-13.3,24.5-30.1,46.9-49.7,66.4c-0.7,0.7-1.4,1.4-2.1,2.1l-4.3-5.8c0,0,22.3,24.9-20,53.7
        s-57.5,0.1-57.5,0.1l0.5,8.1c-27.5,12.9-55.3,20.6-86.7,24.3l-7.7,0.8l9.7-0.8c0,0,3.2,28.5-43.2,25.9s-42-26.9-42-26.9l12.1,0.8
        l-9.6-1.6c-26.9-4.4-51.6-11.5-75.5-22.8l-0.1,0.8c0,0-20.6,29.9-56.9,2c-36.3-27.9-11.5-48.1-11.5-48.1l-0.1-0.3
        c-4.6-4-9-8.2-13.3-12.5c-21.9-21.9-40.3-47.3-54.3-75.3l-0.9-0.3c0,0-31.3,15.3-48.3-35.5S39.4,357,39.4,357l0.6-0.4
        c-1-9.9-1.6-20-1.6-30.2c0-37.1,6-69.6,18.8-102.2l4.7-9.8l-6.7,11.1c0,0-51.2-9.9-10.7-69.9s70.1-26.5,70.1-26.5l-5.9,8.5l4.5-5.1
        c3.2-3.5,6.4-6.9,9.7-10.2c46.7-46.7,109.2-77.4,178.8-83.5l15.7-0.4L302.8,38c0,0-5.4-33.8,54.5-32.1S406.2,48,406.2,48"
    />
  </g>
  <!-- shhhh ;) -->
  <g id="showdexIconEyes">
    <path
      style="fill: #FABDB5; stroke: #000000; stroke-width: 10; stroke-linecap: round; stroke-linejoin: round; stroke-miterlimit: 10;"
      d="M146.4,191.6c-15.2-14.1,5.1-64.2,63.1-73.2s95.2,42.2,89,63.1C292.2,202.3,161.6,205.7,146.4,191.6z"
    />
    <path
      style="fill: #FABDB5; stroke: #000000; stroke-width: 10; stroke-linecap:round; stroke-linejoin: round; stroke-miterlimit: 10;"
      d="M373.9,189.4c-8.4-10.1,7.3-69.2,63.6-73.2s88.4,48.6,82.8,64.2C514.7,195.9,382.3,199.5,373.9,189.4z"
    />
    <ellipse
      transform="matrix(0.1432 -0.9897 0.9897 0.1432 57.8161 368.6882)"
      cx="241.8"
      cy="151"
      rx="18"
      ry="11"
    />
    <ellipse
      transform="matrix(0.998 -6.321476e-02 6.321476e-02 0.998 -8.7005 26.9102)"
      cx="420.9"
      cy="151"
      rx="11"
      ry="18"
    />
  </g>
  <g id="showdexIconMouthBg">
    <path
      style="fill: #DD8784;"
      d="M108.1,222.6c0-9.7,110.3,40.4,220.4,42.8c107.7,2.3,215.2-43.3,219.4-36.6c8.4,13.5-33.4,145.3-219.9,138.5C141.5,360.6,108.1,241.7,108.1,222.6z"
    />
  </g>
  <g id="showdexIconMouthShadow" style="opacity: 0.3; filter: url(#showdexIconGaussianBlur);">
    <path
      d="M108.1,222.6c0-9.7,110.3,35.4,220.4,37.8c107.7,2.3,215.2-38.3,219.4-31.6c2.4,3.8,0,23.3-10.3,42
        c-11.7,21.3-31.5,42-31.5,42s-95.5-27.8-222.8-22.7c-127.3,5.1-118.1,25-118.1,25s-23.7-20.6-34.9-37.9
        C114.7,253.1,108.1,226.8,108.1,222.6z"
    />
  </g>
  <g id="showdexIconMouth">
    <path
      style="fill: none; stroke: #000000; stroke-width: 10; stroke-linecap: round; stroke-linejoin: round; stroke-miterlimit: 10;"
      d="M108.1,222.6c0-9.7,110.3,35.4,220.4,37.8c107.7,2.3,215.2-38.3,219.4-31.6c8.4,13.5-33.4,145.3-219.9,138.5
        C141.5,360.6,108.1,241.7,108.1,222.6z"
    />
    <path
      style="fill: #FFFFFF; stroke: #000000; stroke-width: 10; stroke-linecap: round; stroke-linejoin: round; stroke-miterlimit: 10;"
      d="M141.5,229.1c0,0-12,79.3,7,79.3s27.5-70.6,27.5-70.6L141.5,229.1z"
    />
    <path
      style="fill: #FFFFFF; stroke: #000000; stroke-width: 10; stroke-linecap: round; stroke-linejoin: round; stroke-miterlimit: 10;"
      d="M483,243.1c0,0,7.1,73.3,25,73.3s10.8-82.1,10.8-82.1L483,243.1z"
    />
  </g>
  <g id="showdexIconBones">
    <path
      style="fill: #D4E5DD; stroke: #000000; stroke-width: 10; stroke-linecap: round; stroke-linejoin: round; stroke-miterlimit: 10;"
      d="M299.6,486.5c0,0-37.4-21.4-50.8-26.9s-50,4-24.1-33.1s34.6-3.8,45.5,8c10.8,11.8,60,29.8,60,29.8s56-16.2,60.1-25.5
        c4.1-9.3,16.2-46.3,44.9-9.7c28.7,36.6-9.9,34.2-28,37.7c-18.1,3.5-51.2,20.2-51.2,20.2s36,26.1,45.6,30s51.8-5.1,19.1,33.8
        c-32.7,38.9-36.2,0.1-43-9.5c-6.8-9.6-48.5-35.7-48.5-35.7s-49,21.5-59,27.7s-2.7,52.4-42.1,13.5s11-32.4,24.2-38.3
        C265.5,502.8,299.6,486.5,299.6,486.5z"
    />
    <polygon
      style="fill: #D4E5DD; stroke: #000000; stroke-width: 7; stroke-linecap: round; stroke-linejoin: round; stroke-miterlimit: 10;"
      points="319.3,408 319.3,393.6 340.4,393.6 340.3,408.3 355.9,408.4 355.6,426.8 340,426.7 340,440.8 319.3,440.8 319.3,426.3 303.2,426.1 303.6,407.8"
    />
    <path
      style="fill: #D4E5DD; stroke: #000000; stroke-width:7; stroke-linecap: round; stroke-linejoin: round; stroke-miterlimit: 10;"
      d="M303.8,541.3c0-8.7,3.9-7.6,22.5-7.3s23.1,0.6,23.1,8.2s0,7.6-22.2,7C304.9,548.6,303.8,550,303.8,541.3z"
    />
    <path
      style="fill: #D4E5DD; stroke: #000000; stroke-width: 7; stroke-linecap: round; stroke-linejoin: round; stroke-miterlimit: 10;"
      d="M302.4,566.1c0-8.7,3.9-7.6,22.5-7.3s23.1-0.6,23.1,8.2s0,7.6-22.2,7C303.5,573.4,302.4,574.8,302.4,566.1z"
    />
  </g>
  <g id="showdexIconBumps">
    <path
      style="fill: none; stroke: #000000; stroke-width: 8; stroke-linecap: round; stroke-linejoin: round; stroke-miterlimit: 10;"
      d="M136.3,356.6c0,0-29.3,10.7-17.5,45.6s31,25.9,31,25.9"
    />
    <path
      style="fill: none; stroke: #000000; stroke-width: 8; stroke-linecap: round; stroke-linejoin: round; stroke-miterlimit: 10;"
      d="M505.2,363.3c0,0,25.2,1.3,19.6,41.9c-5.6,40.5-31,26.3-31,26.3"
    />
    <path
      style="fill: none; stroke: #000000; stroke-width: 8; stroke-linecap: round; stroke-linejoin: round; stroke-miterlimit: 10;"
      d="M138.3,473.1c0,0-20.3,13-1.7,31c18.6,18,26.5-1.1,26.5-1.1"
    />
    <path
      style="fill: none; stroke: #000000; stroke-width: 8; stroke-linecap: round; stroke-linejoin: round; stroke-miterlimit: 10;"
      d="M488.1,513.8c0,0,12.6,14.9,24.3-7.1c11.8-22-9.4-27.5-9.4-27.5"
    />
  </g>
  <g id="showdexIconSunglasses">
    <path
      style="fill: #231F20;"
      d="M552.4,132.4v13.1c0,3-2.5,5.5-5.5,5.5h-7.6c-3,0-5.5,2.5-5.5,5.5v7.6
        c0,3-2.5,5.5-5.5,5.5h-7.6c-3,0-5.5,2.5-5.5,5.5v7.6c0,3-2.5,5.5-5.5,5.5H502c-3,0-5.5,2.5-5.5,5.5v7.6c0,3-2.5,5.5-5.5,5.5h-13.1
        h-18.6h-18.6h-18.6h-18.6h-13.1c-3,0-5.5-2.5-5.5-5.5v-7.6c0-3-2.5-5.5-5.5-5.5h-7.6c-3,0-5.5-2.5-5.5-5.5v-7.6
        c0-3-2.5-5.5-5.5-5.5h-7.6c-3,0-5.5-2.5-5.5-5.5v-7.6c0-3-2.5-5.5-5.5-5.5h-13.1h-14.2c-3,0-5.5,2.5-5.5,5.5v7.6
        c0,3-2.5,5.5-5.5,5.5h-7.6c-3,0-5.5,2.5-5.5,5.5v7.6c0,3-2.5,5.5-5.5,5.5h-7.6c-3,0-5.5,2.5-5.5,5.5v7.6c0,3-2.5,5.5-5.5,5.5h-13.1
        h-18.6h-18.6h-18.6h-18.6h-13.1c-3,0-5.5-2.5-5.5-5.5v-7.6c0-3-2.5-5.5-5.5-5.5h-7.6c-3,0-5.5-2.5-5.5-5.5v-7.6
        c0-3-2.5-5.5-5.5-5.5h-7.6c-3,0-5.5-2.5-5.5-5.5v-7.6c0-3-2.5-5.5-5.5-5.5h-7.6c-3,0-5.5-2.5-5.5-5.5v-26.2c0-3,2.5-5.5,5.5-5.5
        h13.1h18.6h18.6h18.6h18.6h18.6h18.6h18.6h18.6h18.6h18.6h19.7H366h18.6h18.6h18.6h18.6h18.6h18.6h18.6h18.6h18.6h11.6
        c3.9,0,7,3.2,7,7V132.4z M327.7,151h-18.6"
    />
    <path
      style="fill: #FFFFFF;"
      d="M515.1,138.2v7.1c0,3.2-2.6,5.8-5.8,5.8h-7.1c-3.2,0-5.8-2.6-5.8-5.8v-7.1
        c0-3.2,2.6-5.8,5.8-5.8h7.1C512.6,132.4,515.1,135,515.1,138.2z M496.5,156.8v7.1c0,3.2-2.6,5.8-5.8,5.8h-7.1
        c-3.2,0-5.8-2.6-5.8-5.8v-7.1c0-3.2,2.6-5.8,5.8-5.8h7.1C493.9,151,496.5,153.6,496.5,156.8z M472.1,151H465
        c-3.2,0-5.8-2.6-5.8-5.8v-7.1c0-3.2,2.6-5.8,5.8-5.8h7.1c3.2,0,5.8,2.6,5.8,5.8v7.1C477.9,148.4,475.3,151,472.1,151z M459.2,156.8
        v7.1c0,3.2-2.6,5.8-5.8,5.8h-7.1c-3.2,0-5.8-2.6-5.8-5.8v-7.1c0-3.2,2.6-5.8,5.8-5.8h7.1C456.6,151,459.2,153.6,459.2,156.8z
        M440.6,175.5v7.1c0,3.2-2.6,5.8-5.8,5.8h-7.1c-3.2,0-5.8-2.6-5.8-5.8v-7.1c0-3.2,2.6-5.8,5.8-5.8h7.1
        C438,169.7,440.6,172.3,440.6,175.5z M465,169.7h7.1c3.2,0,5.8,2.6,5.8,5.8v7.1c0,3.2-2.6,5.8-5.8,5.8H465c-3.2,0-5.8-2.6-5.8-5.8
        v-7.1C459.2,172.3,461.8,169.7,465,169.7z"
    />
    <path
      style="fill: #FFFFFF;"
      d="M291.8,137.7v7.1c0,3.2-2.6,5.8-5.8,5.8H279c-3.2,0-5.8-2.6-5.8-5.8v-7.1
        c0-3.2,2.6-5.8,5.8-5.8h7.1C289.2,131.9,291.8,134.5,291.8,137.7z M273.2,156.3v7.1c0,3.2-2.6,5.8-5.8,5.8h-7.1
        c-3.2,0-5.8-2.6-5.8-5.8v-7.1c0-3.2,2.6-5.8,5.8-5.8h7.1C270.6,150.5,273.2,153.1,273.2,156.3z M248.8,150.5h-7.1
        c-3.2,0-5.8-2.6-5.8-5.8v-7.1c0-3.2,2.6-5.8,5.8-5.8h7.1c3.2,0,5.8,2.6,5.8,5.8v7.1C254.5,148,252,150.5,248.8,150.5z M235.9,156.3
        v7.1c0,3.2-2.6,5.8-5.8,5.8H223c-3.2,0-5.8-2.6-5.8-5.8v-7.1c0-3.2,2.6-5.8,5.8-5.8h7.1C233.3,150.5,235.9,153.1,235.9,156.3z
        M217.3,175v7.1c0,3.2-2.6,5.8-5.8,5.8h-7.1c-3.2,0-5.8-2.6-5.8-5.8V175c0-3.2,2.6-5.8,5.8-5.8h7.1
        C214.7,169.2,217.3,171.8,217.3,175z M241.7,169.2h7.1c3.2,0,5.8,2.6,5.8,5.8v7.1c0,3.2-2.6,5.8-5.8,5.8h-7.1
        c-3.2,0-5.8-2.6-5.8-5.8V175C235.9,171.8,238.5,169.2,241.7,169.2z"
    />
  </g>
</svg>
