<!-- fluent-emoji-high-contrast:teddy-bear -->
<svg width="32" height="32" viewBox="0 0 32 32">
  <g fill="currentColor">
    <path d="M15.5 10a.5.5 0 0 0-.458.299c-.053.121.01.254.104.347l.5.5a.5.5 0 0 0 .708 0l.5-.5c.093-.093.157-.226.104-.347A.5.5 0 0 0 16.5 10h-1Z"/><path d="M9 4.57c0 .535.168 1.031.454 1.438C8.567 7.174 8 8.584 8 10.152c0 2.216.901 3.698 2.357 4.625l-6.759 3.902A3 3 0 0 0 6.4 23.98a3.498 3.498 0 0 0 .423 3.438l.895 1.203a3.5 3.5 0 0 0 5.62-.004A7.986 7.986 0 0 0 16 29.07c.937 0 1.836-.16 2.671-.457a3.5 3.5 0 0 0 5.622.008l.896-1.203a3.498 3.498 0 0 0 .42-3.445a3 3 0 0 0 2.906-5.244l-6.683-4.078C23.176 13.72 24 12.271 24 10.152c0-1.568-.567-2.978-1.454-4.144a2.5 2.5 0 0 0-4.032-2.956c-.846-.313-1.707-.482-2.514-.482c-.807 0-1.668.169-2.514.482A2.5 2.5 0 0 0 9 4.57Zm2.5-1.5c.396 0 .756.154 1.024.404a9.235 9.235 0 0 0-2.38 1.738A1.5 1.5 0 0 1 11.5 3.07ZM21 22.112a3.483 3.483 0 0 0-1.426 1.126l-.896 1.203a3.485 3.485 0 0 0-.69 2.219c-.61.264-1.282.41-1.988.41c-.702 0-1.37-.144-1.976-.405a3.486 3.486 0 0 0-.69-2.224l-.896-1.203A3.483 3.483 0 0 0 11 22.107v-.037a5 5 0 0 1 10 0v.042ZM22 4.57c0 .23-.052.448-.144.642a9.235 9.235 0 0 0-2.38-1.738A1.5 1.5 0 0 1 22 4.57ZM13.5 9a.5.5 0 1 1 0-1a.5.5 0 0 1 0 1Zm2.5 5.5c-1.933 0-3.5-1.62-3.5-3S14.067 9 16 9s3.5 1.12 3.5 2.5s-1.567 3-3.5 3Zm3-6a.5.5 0 1 1-1 0a.5.5 0 0 1 1 0Zm-7.736 15.65l.896 1.204a2 2 0 1 1-3.209 2.389l-.896-1.204a2 2 0 1 1 3.209-2.388Zm9.484 0a2 2 0 0 1 3.208 2.39l-.895 1.203a2 2 0 1 1-3.209-2.389l.896-1.203Z" />
  </g>
</svg>
