<svg xmlns="http://www.w3.org/2000/svg" x="0" y="0" viewBox="0 0 435.3 169.9">
  <path fill="currentColor" d="M66.2,17.5c-3.2-0.4-6.2-0.7-9-0.7c-5.3,0-10.1,0.8-14.5,2.2c-4.4,1.5-8.3,4.1-11.5,7.9c-3.2,3.8-5.8,8.7-7.6,14.9C21.6,48,20.7,55.7,20.7,65c0,2.9,0.2,5.2,0.5,7c0.3,1.8,0.7,3.2,1.1,4.3c0.4,1.1,0.8,1.9,1.2,2.5c0.4,0.6,0.6,1.1,0.6,1.6c-7.8,0-13.8-1.6-17.9-4.8C2.1,72.3,0,66.6,0,58.5C0,51,1.4,43.7,4.1,36.7c2.7-7,7.2-13.3,13.3-18.7c6.1-5.4,14-9.7,23.7-13.1C50.7,1.7,62.5,0,76.5,0c2.2,0,5.5,0.2,9.8,0.6c4.3,0.4,9,0.8,14.3,1.2c5.2,0.5,10.8,0.9,16.6,1.2c5.9,0.4,11.5,0.6,17.1,0.6c5.2,0,10.1-0.2,14.6-0.7c4.5-0.4,8.2-1.3,11.2-2.5c0.9,2.9,1.5,5.5,1.9,8c0.4,2.5,0.6,4.8,0.6,6.9c0,4.5-0.8,8.2-2.5,11.1c-1.7,2.9-3.7,5.3-6.1,7c-2.4,1.7-5,2.9-7.7,3.5c-2.7,0.6-5,0.9-7,0.9c-5.3,0-11.2-1.3-18-3.8c-6.8-2.5-14.9-5.5-24.5-8.8L66.2,168.5H33.8L66.2,17.5z M153.7,56l-16.2,76.5c-0.6,2.6-0.9,5-0.9,7.2c0,3.2,0.7,5.3,2.2,6.5c1.5,1.2,3.8,1.8,7,1.8c4.3,0,8.4-1.9,12.2-5.6c3.7-3.7,6.4-8.5,8.1-14.2h9.5c-3.2,9.2-6.8,16.5-11,21.9c-4.2,5.5-8.5,9.7-12.8,12.6c-4.4,2.9-8.6,4.8-12.7,5.7c-4.1,0.9-7.7,1.4-10.7,1.4c-6.8,0-12.5-2.1-17.1-6.4c-4.7-4.3-7-11.1-7-20.6c0-4.1,0.6-8.9,1.8-14.6L121.3,56H153.7z" />
  <path fill="currentColor" d="M234.9,148.1c-1.5-0.1-2.6-0.7-3.3-1.6c-0.7-0.9-1-1.9-1-3.2c0-2.1,1-4.2,3.1-6.4c2.1-2.2,5.2-3.3,9.5-3.3c3.4,0,6,1.1,7.5,3.2c1.6,2.1,2.4,4.7,2.4,7.6c0,2.6-0.6,5.3-1.8,8.1c-1.2,2.9-3,5.5-5.4,7.9c-2.4,2.4-5.3,4.4-8.7,5.8c-3.4,1.5-7.2,2.2-11.6,2.2H166l57.4-100.4h-12.6c-3.5,0-6.4,0.2-8.8,0.6c-2.4,0.4-3.6,1.4-3.6,3c0,0.3,0.1,0.5,0.3,0.6c0.2,0.1,0.5,0.2,0.9,0.5c0.4,0.2,0.7,0.6,0.9,1.1c0.2,0.5,0.3,1.5,0.3,2.8c0,4.2-1.3,7.2-3.8,9.1c-2.6,1.9-5.3,2.8-8.3,2.8c-2.6,0-4.9-0.8-7.1-2.5c-2.2-1.6-3.3-4.1-3.3-7.4c0-2.2,0.6-4.7,1.8-7.4c1.2-2.7,2.9-5.2,5.2-7.4s5-4.1,8.2-5.6c3.2-1.5,6.9-2.2,10.9-2.2h57.8l-55.1,95.2c1.9,0.2,4.5,0.4,7.8,0.8c3.2,0.4,6.3,0.6,9.3,0.6c2.7,0,5.1-0.3,7.1-0.9C233.4,151.1,234.6,149.9,234.9,148.1z" />
  <path fill="currentColor" d="M293.2,123.1c-0.1,1.2-0.3,2.4-0.3,3.5c-0.1,1.1-0.1,2.3-0.1,3.5c0,2.2,0.2,4.5,0.6,6.6c0.4,2.2,1.1,4.2,2.1,6c1,1.8,2.5,3.2,4.3,4.3c1.8,1.1,4.1,1.6,6.9,1.6c4.3,0,8.9-1.2,13.8-3.6c4.8-2.4,9.1-5.2,12.6-8.3c-1.2,6.5-3,11.8-5.5,16.1c-2.5,4.3-5.4,7.7-8.9,10.2c-3.5,2.6-7.3,4.4-11.5,5.4c-4.2,1-8.5,1.6-13,1.6c-10.5,0-18.9-2.8-25.3-8.3c-6.4-5.5-9.6-14.7-9.6-27.5c0-4.3,0.5-9.3,1.4-14.8c0.9-5.5,2.3-11.2,4.2-17.1c1.9-5.8,4.4-11.6,7.5-17.2c3.2-5.6,7-10.7,11.5-15.2s9.7-8.1,15.8-10.8c6-2.7,12.8-4,20.5-4c5,0,9,0.6,12.3,1.8c3.2,1.2,5.8,2.8,7.7,4.8c1.9,2,3.1,4.3,3.8,6.9c0.7,2.6,1,5.3,1,8.1c0,6.5-1.4,12.4-4.3,17.9c-2.8,5.5-6.6,10.3-11.4,14.4c-4.8,4.1-10.3,7.4-16.5,9.9C306.3,121.2,299.9,122.6,293.2,123.1z M327.4,76.2c0-2.8-0.4-5.1-1.2-6.7c-0.8-1.6-2.3-2.5-4.4-2.5c-2.9,0-5.6,1.4-8.3,4.1c-2.7,2.8-5.3,6.3-7.7,10.6c-2.4,4.3-4.6,9.2-6.5,14.6c-2,5.4-3.5,10.7-4.7,15.9c4.3-0.1,8.5-1.3,12.5-3.4c4-2.1,7.5-4.8,10.5-8.1c3-3.3,5.4-7.1,7.2-11.3C326.5,85.3,327.4,80.9,327.4,76.2z" />
  <path fill="currentColor" d="M349.4,164.4c0-1.1,0.4-2.1,1.2-2.9c0.8-0.8,1.8-1.2,2.9-1.2c1.1,0,2.1,0.4,2.9,1.2c0.8,0.8,1.2,1.8,1.2,2.9c0,1.1-0.4,2.1-1.2,2.9c-0.8,0.8-1.8,1.2-2.9,1.2c-1.1,0-2.1-0.4-2.9-1.2C349.8,166.5,349.4,165.6,349.4,164.4z" />
  <path fill="currentColor" d="M370.2,108.7c0-1.1,0.4-2.1,1.2-2.9s1.8-1.2,2.9-1.2c1.1,0,2.1,0.4,2.9,1.2c0.8,0.8,1.2,1.8,1.2,2.9c0,1.1-0.4,2.1-1.2,2.9c-0.8,0.8-1.8,1.2-2.9,1.2c-1.1,0-2.1-0.4-2.9-1.2C370.6,110.8,370.2,109.9,370.2,108.7z M371.2,123c0-0.9,0.3-1.6,0.9-2.2c0.6-0.6,1.3-0.9,2.2-0.9c0.9,0,1.6,0.3,2.2,0.9c0.6,0.6,0.9,1.3,0.9,2.2v42.4c0,0.9-0.3,1.6-0.9,2.2c-0.6,0.6-1.3,0.9-2.2,0.9c-0.9,0-1.6-0.3-2.2-0.9c-0.6-0.6-0.9-1.3-0.9-2.2V123z" />
  <path fill="currentColor" d="M411.3,120.1c3.2,0,6.2,0.7,9.1,2c2.9,1.3,5.5,3,7.7,5.2s4,4.8,5.2,7.7c1.3,2.9,2,6.1,2,9.4c0,3.3-0.6,6.3-1.9,9.2c-1.3,2.9-3,5.4-5.1,7.6c-2.2,2.2-4.7,3.9-7.7,5.2c-2.9,1.3-6.1,1.9-9.5,1.9c-3.3,0-6.5-0.6-9.3-1.8c-2.9-1.2-5.5-2.9-7.7-5c-2.2-2.1-3.9-4.7-5.2-7.6c-1.3-2.9-1.9-6.1-1.9-9.6c0-3.3,0.6-6.5,1.8-9.4c1.2-2.9,2.9-5.4,5.1-7.6c2.2-2.2,4.7-3.9,7.7-5.2C404.7,121,407.9,120.3,411.3,120.1z M411.1,126.4c-2.5,0-4.8,0.5-7,1.4c-2.2,0.9-4.1,2.2-5.7,3.9c-1.6,1.6-2.9,3.5-3.8,5.8c-0.9,2.2-1.4,4.5-1.4,7c0,2.5,0.5,4.8,1.4,6.9c0.9,2.2,2.2,4.1,3.8,5.7c1.6,1.6,3.5,2.9,5.7,3.9c2.2,0.9,4.5,1.4,7,1.4c2.5,0,4.8-0.5,7-1.4s4.1-2.2,5.8-3.9c1.6-1.6,2.9-3.5,3.8-5.7c0.9-2.2,1.4-4.5,1.4-6.9c0-2.5-0.5-4.8-1.4-7c-0.9-2.2-2.2-4.1-3.8-5.8c-1.6-1.6-3.5-2.9-5.8-3.9C415.9,126.9,413.6,126.4,411.1,126.4z" />
</svg>
