<?xml version="1.0" encoding="utf-8"?>
<!-- Generator: Adobe Illustrator 22.0.1, SVG Export Plug-In . SVG Version: 6.00 Build 0)  -->
<svg version="1.1" xmlns="http://www.w3.org/2000/svg" xmlns:xlink="http://www.w3.org/1999/xlink" x="0px" y="0px"
	 viewBox="0 0 864 864" style="enable-background:new 0 0 864 864;" xml:space="preserve">
<style type="text/css">
	.st0{fill:#424242;}
	.st1{fill:#FFFFFF;}
	.st2{fill:#2471A7;}
</style>
<g id="Layer_3">
	<circle class="st0" cx="432" cy="432" r="400.2"/>
</g>
<g id="Layer_2_1_">
	<g>
		<circle cx="432" cy="432" r="364.2"/>
		<g>
			<path class="st1" d="M564.4,459.1c-12.6,61.6-67.1,108-132.4,108c-65.3,0-119.9-46.4-132.4-108H111.8
				C125.6,623.9,263.6,753.4,432,753.4c168.4,0,306.4-129.5,320.2-294.3H564.4z"/>
			<path class="st1" d="M432,337.4c-52.2,0-94.6,42.3-94.6,94.6c0,52.2,42.3,94.6,94.6,94.6c52.2,0,94.6-42.3,94.6-94.6
				C526.6,379.8,484.2,337.4,432,337.4z M432,478.6c-25.8,0-46.6-20.9-46.6-46.6c0-25.8,20.9-46.6,46.6-46.6
				c25.8,0,46.6,20.9,46.6,46.6C478.6,457.8,457.8,478.6,432,478.6z"/>
		</g>
		<path class="st2" d="M432,296.9c65.3,0,119.9,46.4,132.4,108h187.8C738.4,240.1,600.3,110.6,432,110.6
			c-168.3,0-306.4,129.5-320.2,294.3h187.8C312.1,343.3,366.7,296.9,432,296.9z"/>
	</g>
</g>
</svg>
